<svg xmlns="http://www.w3.org/2000/svg" viewBox="0 0 40.97 30"><defs><style>.cls-1{fill:#c1c1c1;}</style></defs><g id="레이어_3" data-name="레이어 3"><path class="cls-1" d="M98.12,106.05a5.28,5.28,0,0,1-2.61-.69l-8.87-5H82A3.93,3.93,0,0,1,78,96.49V85.61A3.93,3.93,0,0,1,82,81.68h4.48a1.09,1.09,0,0,0,.28,0l8.8-4.92a5.33,5.33,0,0,1,5.39.1,5.22,5.22,0,0,1,2.51,4.47v19.49a5.23,5.23,0,0,1-2.51,4.48A5.31,5.31,0,0,1,98.12,106.05ZM88.07,97.81l8.82,4.93a2.49,2.49,0,0,0,2.54,0,2.22,2.22,0,0,0,1.09-1.91V81.3a2.21,2.21,0,0,0-1.09-1.9,2.46,2.46,0,0,0-2.54,0h0l-9.07,5a3.48,3.48,0,0,1-1.39.26H82a1,1,0,0,0-1,.94V96.49a1,1,0,0,0,1,.94h4.59A2.22,2.22,0,0,1,88.07,97.81Z" transform="translate(-78.03 -76.05)"/></g><g id="레이어_4" data-name="레이어 4"><path class="cls-1" d="M117.78,97a1.21,1.21,0,0,1-.86-.36L106.36,86.08a1.22,1.22,0,0,1,1.72-1.72l10.56,10.56a1.22,1.22,0,0,1-.86,2.08Z" transform="translate(-78.03 -76.05)"/><path class="cls-1" d="M107.22,97a1.22,1.22,0,0,1-.86-2.08l10.56-10.56a1.22,1.22,0,0,1,1.72,1.72L108.08,96.64A1.21,1.21,0,0,1,107.22,97Z" transform="translate(-78.03 -76.05)"/></g></svg>