<svg width="16" height="20" viewBox="0 0 16 20" fill="none" xmlns="http://www.w3.org/2000/svg">
<path fill-rule="evenodd" clip-rule="evenodd" d="M0.789572 4.05248L0.921893 6.04215H15.0777L15.2104 4.05244C15.2044 3.78038 14.9826 3.56194 14.71 3.56194H1.28996C1.01716 3.56194 0.795566 3.78061 0.789572 4.05248ZM0 4.06379C0 3.34984 0.577086 2.77039 1.28996 2.77039H14.71C15.4221 2.77039 16 3.34901 16 4.06379C16 4.0726 15.9997 4.08141 15.9991 4.09021L15.8407 6.46435C15.8268 6.67221 15.6546 6.8337 15.4469 6.8337H0.552613C0.344808 6.8337 0.17259 6.67216 0.158764 6.46426L0.000874641 4.09012C0.000291714 4.08135 0 4.07257 0 4.06379Z" fill="#BDBDBD"/>
<path fill-rule="evenodd" clip-rule="evenodd" d="M6.26353 0.791555C5.98696 0.791555 5.76302 1.01632 5.76302 1.2934V2.58575H10.2897V1.2934C10.2897 1.01609 10.0655 0.791555 9.7892 0.791555H6.26353ZM4.97357 1.2934C4.97357 0.579458 5.55066 0 6.26353 0H9.7892C10.5012 0 11.0792 0.578627 11.0792 1.2934V2.98152C11.0792 3.20011 10.9024 3.3773 10.6844 3.3773H5.3683C5.1503 3.3773 4.97357 3.20011 4.97357 2.98152V1.2934Z" fill="#BDBDBD"/>
<path fill-rule="evenodd" clip-rule="evenodd" d="M1.13594 6.19068C1.2104 6.11274 1.31336 6.06866 1.421 6.06866H14.6311C14.7387 6.06866 14.8417 6.11274 14.9161 6.19068C14.9906 6.26862 15.0301 6.37366 15.0254 6.48149L14.4995 18.7159C14.4945 19.4256 13.9193 20 13.2096 20H2.84253C2.13357 20 1.55758 19.4264 1.55261 18.7159L1.02664 6.48149C1.02201 6.37366 1.06149 6.26862 1.13594 6.19068ZM1.83311 6.86022L2.34166 18.6896C2.3419 18.6953 2.34202 18.701 2.34202 18.7066C2.34202 18.9839 2.56619 19.2085 2.84253 19.2085H13.2096C13.4861 19.2085 13.7101 18.9837 13.7101 18.7066C13.7101 18.701 13.7102 18.6953 13.7104 18.6896L14.219 6.86022H1.83311Z" fill="#BDBDBD"/>
<path fill-rule="evenodd" clip-rule="evenodd" d="M4.92089 8.07391C5.21156 8.07391 5.44719 8.31017 5.44719 8.60162V17.467C5.44719 17.7585 5.21156 17.9947 4.92089 17.9947C4.63022 17.9947 4.39459 17.7585 4.39459 17.467V8.60162C4.39459 8.31017 4.63022 8.07391 4.92089 8.07391Z" fill="#BDBDBD"/>
<path fill-rule="evenodd" clip-rule="evenodd" d="M8.02602 8.07391C8.31669 8.07391 8.55232 8.31017 8.55232 8.60162V17.467C8.55232 17.7585 8.31669 17.9947 8.02602 17.9947C7.73536 17.9947 7.49973 17.7585 7.49973 17.467V8.60162C7.49973 8.31017 7.73536 8.07391 8.02602 8.07391Z" fill="#BDBDBD"/>
<path fill-rule="evenodd" clip-rule="evenodd" d="M11.1312 8.07391C11.4219 8.07391 11.6575 8.31017 11.6575 8.60162V17.467C11.6575 17.7585 11.4219 17.9947 11.1312 17.9947C10.8406 17.9947 10.6049 17.7585 10.6049 17.467V8.60162C10.6049 8.31017 10.8406 8.07391 11.1312 8.07391Z" fill="#BDBDBD"/>
</svg>
