<svg width="26" height="26" viewBox="0 0 26 26" fill="none" xmlns="http://www.w3.org/2000/svg">
<path d="M9.75 19.5V5.41667L22.75 3.25V17.3333" stroke="#1C1C1C" stroke-width="2" stroke-linecap="round" stroke-linejoin="round"/>
<path d="M6.5 22.75C8.29493 22.75 9.75 21.2949 9.75 19.5C9.75 17.7051 8.29493 16.25 6.5 16.25C4.70507 16.25 3.25 17.7051 3.25 19.5C3.25 21.2949 4.70507 22.75 6.5 22.75Z" stroke="#1C1C1C" stroke-width="2" stroke-linecap="round" stroke-linejoin="round"/>
<path d="M19.5 20.5833C21.2949 20.5833 22.75 19.1283 22.75 17.3333C22.75 15.5384 21.2949 14.0833 19.5 14.0833C17.7051 14.0833 16.25 15.5384 16.25 17.3333C16.25 19.1283 17.7051 20.5833 19.5 20.5833Z" stroke="#1C1C1C" stroke-width="2" stroke-linecap="round" stroke-linejoin="round"/>
</svg>
